<svg id="Layer_1" data-name="Layer 1" xmlns="http://www.w3.org/2000/svg" viewBox="0 0 300 94"><defs><style>.cls-1{fill:#f5d301;}.cls-2{fill:none;stroke:#f5d301;stroke-miterlimit:10;stroke-width:7px;}</style></defs><title>Final</title><path class="cls-1" d="M49.36,63.81H28L18.91,78.63H6.71L42.82,22.2H82.36v9.08h-23V45.15H80.92v9.09H59.4V69.55H83.32v9.08h-34Zm0-8.61V31.28h-1.2L33.26,55.2Z"/><path class="cls-1" d="M96.63,22.2h9.72l-6.77,21H91.05Z"/><path class="cls-1" d="M128.35,31.28h-17.3V22.2h44.64v9.08h-17.3V78.63h-10Z"/><path class="cls-1" d="M173.47,22.2h8.68l24.31,56.43H195l-5.27-12.91H165.25l-5.1,12.91H148.91Zm12.75,34.91-8.69-23-8.85,23Z"/><path class="cls-1" d="M212.76,22.2h10.05V69.55h24v9.08h-34Z"/><path class="cls-1" d="M259.07,54.48,237.87,22.2h12.59l13.87,22.48,14-22.48h12l-21.2,32.28V78.63H259.07Z"/><polyline class="cls-2" points="42.42 11.5 254.07 11.5 254.59 11.51 264.84 27.94"/></svg>
