<svg id="Layer_1" data-name="Layer 1" xmlns="http://www.w3.org/2000/svg" viewBox="0 0 300 300"><defs><style>.cls-1{fill:#f5d301;}.cls-2{fill:none;stroke:#f5d301;stroke-miterlimit:10;stroke-width:7px;}</style></defs><title>Final</title><path class="cls-1" d="M49.36,140.81H28l-9.09,14.82H6.71L42.82,99.2H82.36v9.08h-23v13.87H80.92v9.09H59.4v15.31H83.32v9.08h-34Zm0-8.61V108.28h-1.2L33.26,132.2Z"/><path class="cls-1" d="M96.63,99.2h9.72l-6.77,21H91.05Z"/><path class="cls-1" d="M128.35,108.28h-17.3V99.2h44.64v9.08h-17.3v47.35h-10Z"/><path class="cls-1" d="M173.47,99.2h8.68l24.31,56.43H195l-5.27-12.91H165.25l-5.1,12.91H148.91Zm12.75,34.91-8.69-23-8.85,23Z"/><path class="cls-1" d="M212.76,99.2h10.05v47.35h24v9.08h-34Z"/><path class="cls-1" d="M259.07,131.48,237.87,99.2h12.59l13.87,22.48,14-22.48h12l-21.2,32.28v24.15H259.07Z"/><polyline class="cls-2" points="42.42 88.5 254.07 88.5 254.59 88.51 264.84 104.94"/></svg>
